<svg width="20" height="20" viewBox="0 0 20 20" fill="none" xmlns="http://www.w3.org/2000/svg">
<path d="M18.9036 9.23647V3.30488C18.9036 2.08703 17.9127 1.09619 16.6949 1.09619H2.20862C0.990774 1.09619 0 2.08703 0 3.30488V12.3089C0 13.5268 0.990774 14.5176 2.20862 14.5176H7.9365C8.70108 17.0522 11.057 18.9034 13.8375 18.9034C17.2355 18.9034 19.9999 16.139 19.9999 12.7409C20 11.4399 19.5944 10.2321 18.9036 9.23647ZM10.3331 7.67485H1.36054V5.74609H17.543V7.82024C16.511 7.04111 15.2273 6.57849 13.8375 6.57849C12.5366 6.57842 11.3288 6.98401 10.3331 7.67485ZM2.20862 2.45673H16.6949C17.1626 2.45673 17.543 2.8372 17.543 3.30488V4.38555H1.36054V3.30488C1.36054 2.8372 1.74101 2.45673 2.20862 2.45673ZM2.20862 13.1571C1.74101 13.1571 1.36054 12.7766 1.36054 12.3089V9.03539H8.91683C8.13771 10.0674 7.67508 11.3511 7.67508 12.7409C7.67508 12.8808 7.6802 13.0195 7.68943 13.1571H2.20862V13.1571ZM13.8376 17.5428C11.1898 17.5428 9.03562 15.3887 9.03562 12.7408C9.03562 10.0931 11.1898 7.93896 13.8376 7.93896C16.4853 7.93896 18.6395 10.0931 18.6395 12.7408C18.6395 15.3887 16.4853 17.5428 13.8376 17.5428Z" fill="#FFBB38"/>
<path d="M10.5479 10.9644C10.1723 10.9644 9.86768 11.2689 9.86768 11.6446V13.8375C9.86768 14.2132 10.1723 14.5178 10.5479 14.5178H17.1266C17.5023 14.5178 17.8069 14.2132 17.8069 13.8375V11.6446C17.8069 11.2689 17.5023 10.9644 17.1266 10.9644H10.5479ZM16.4463 13.1573H11.2282V12.325H16.4463V13.1573Z" fill="#FFBB38"/>
</svg>
